<svg width="1000" height="1000" viewBox="0 0 1000 1000" fill="none" xmlns="http://www.w3.org/2000/svg">
<path d="M915 500C915 669.574 813.294 815.393 667.556 879.785L912.623 455.317C914.194 469.996 915 484.904 915 500ZM836.144 256.573C852.798 279.53 867.158 304.259 878.886 330.425V335C837.509 335 811.649 290.208 832.337 254.375L500 830L167.663 254.375C188.351 290.208 162.491 335 121.114 335V330.425C132.842 304.259 147.202 279.53 163.856 256.573C239.273 152.611 361.741 85 500 85C638.259 85 760.727 152.611 836.144 256.573ZM87.3775 455.317L332.444 879.785C186.706 815.393 85 669.574 85 500C85 484.904 85.8061 469.996 87.3775 455.317Z" stroke="#6C8F00" stroke-width="170" stroke-linejoin="bevel"/>
</svg>
